<svg width="83" height="83" viewBox="0 0 83 83" fill="none" xmlns="http://www.w3.org/2000/svg">
<g id="logo-tp">
<g id="normal">
<g id="t-group-normal">
<mask id="mask0_0_1" style="mask-type:alpha" maskUnits="userSpaceOnUse" x="4" y="13" width="51" height="52">
<path id="t-mask-normal" d="M4 33L6.5 13.5H52L54.5 34.5L45.1463 32.0613L25 65L4 33Z" fill="black"/>
</mask>
<g mask="url(#mask0_0_1)">
<path id="T-normal" d="M25.4127 18.1757H32.8287V66.0197L39.2727 67.5317V68.5757H18.9687V67.5317L25.4127 66.0197V18.1757ZM49.4607 19.2557H8.78068L12.8487 18.5717L5.72068 33.0077L4.67668 32.7557L6.94468 14.4677H7.59268L12.8847 17.6717L9.64468 17.0957H48.5967L45.3567 17.6717L50.6487 14.4677H51.2967L53.5647 32.7557L52.5207 33.0077L45.3927 18.5717L49.4607 19.2557Z" fill="#0F7C7C"/>
</g>
</g>
<g id="p-group-normal">
<mask id="mask1_0_1" style="mask-type:alpha" maskUnits="userSpaceOnUse" x="33" y="13" width="47" height="57">
<path id="p-mask-normal" d="M33.7439 61.426L63.8048 13L79.3536 21.811V34.7683L58.1036 69.6687H33.7439V61.426Z" fill="black"/>
</mask>
<g mask="url(#mask1_0_1)">
<path id="P-normal" d="M69.0673 29.7046C69.0673 27.1366 68.5153 24.9646 67.4113 23.1886C66.3073 21.3886 64.4833 20.0326 61.9393 19.1206C59.3953 18.1846 55.9513 17.7166 51.6073 17.7166H44.2633V15.5566H58.0153C62.4553 15.5566 66.0313 16.1686 68.7433 17.3926C71.4793 18.5926 73.4713 20.2246 74.7193 22.2886C75.9913 24.3526 76.6273 26.6686 76.6273 29.2366C76.6273 31.8766 75.9793 34.3126 74.6833 36.5446C73.3873 38.7526 71.3713 40.5166 68.6353 41.8366C65.8993 43.1566 62.3593 43.8166 58.0153 43.8166H44.2633V41.6566H56.2873C58.7113 41.6566 60.8833 41.2126 62.8033 40.3246C64.7473 39.4126 66.2713 38.0686 67.3753 36.2926C68.5033 34.5166 69.0673 32.3206 69.0673 29.7046ZM49.0153 15.5566V64.4806L55.4593 65.9926V67.0366H35.1553V65.9926L41.5993 64.4806V18.0766L35.1553 16.6006V15.5566H49.0153Z" fill="#0A4F55"/>
</g>
</g>
<path id="divider-normal" d="M25.4512 68.4573L58.4762 15.0732H59.6585L26.4878 68.4573H25.4512Z" fill="#0F7C7C"/>
</g>
</g>
</svg>
